<?xml version="1.0" standalone="no"?>
<!DOCTYPE svg PUBLIC "-//W3C//DTD SVG 20010904//EN"
 "http://www.w3.org/TR/2001/REC-SVG-20010904/DTD/svg10.dtd">
<svg version="1.0" xmlns="http://www.w3.org/2000/svg"
 width="128.000000pt" height="128.000000pt" viewBox="0 0 128.000000 128.000000"
 preserveAspectRatio="xMidYMid meet">
<metadata>
Created by potrace 1.10, written by Peter Selinger 2001-2011
</metadata>
<g transform="translate(0.000000,128.000000) scale(0.100000,-0.100000)"
fill="#000000" stroke="none">
<path d="M430 1080 c-106 -111 -191 -202 -189 -203 2 -1 174 0 382 3 l379 5
-187 198 c-102 108 -188 197 -189 197 -2 0 -90 -90 -196 -200z m342 -1 c73
-77 134 -144 136 -148 5 -15 -47 -22 -186 -22 -75 0 -146 -1 -157 -1 -81 -2
-212 6 -221 13 -12 10 260 299 281 299 8 0 73 -63 147 -141z"/>
<path d="M498 1068 c-4 -9 5 -13 30 -13 50 0 50 -19 0 -55 -69 -51 -69 -60 2
-60 65 0 83 17 23 22 l-38 3 43 29 c35 24 42 34 40 55 -3 23 -8 26 -49 29 -31
2 -48 -1 -51 -10z"/>
<path d="M652 1068 c-7 -7 -12 -29 -12 -50 0 -45 28 -78 65 -78 27 0 65 32 65
54 0 23 -20 70 -33 78 -19 12 -72 9 -85 -4z m78 -59 c0 -28 -5 -42 -16 -46
-34 -13 -60 67 -32 95 22 22 48 -5 48 -49z"/>
<path d="M800 1141 c52 -56 129 -138 170 -182 l75 -81 97 39 c54 21 98 40 98
43 0 3 -55 33 -122 67 -68 34 -188 97 -268 139 l-145 76 95 -101z m224 -110
c11 -9 16 -10 12 -3 -11 19 12 14 47 -10 66 -47 66 -72 0 -84 -24 -5 -39 -2
-51 10 -9 8 -29 26 -44 39 -15 13 -25 27 -21 31 4 3 18 -4 32 -16 14 -13 19
-15 12 -5 -7 9 -10 17 -5 17 5 0 1 5 -9 11 -9 5 -21 8 -25 5 -5 -3 -26 13 -48
35 l-39 40 60 -27 c33 -15 69 -34 79 -43z"/>
<path d="M1058 1020 c17 -20 15 -30 -5 -24 -17 5 -17 5 0 -6 10 -6 25 -10 33
-8 12 2 9 9 -13 28 -15 14 -22 18 -15 10z"/>
<path d="M514 1221 c-5 -5 -112 -68 -237 -140 -125 -71 -227 -133 -226 -138 2
-4 35 -20 74 -36 l72 -27 129 132 c71 73 146 150 168 171 21 21 36 40 34 42
-2 3 -9 1 -14 -4z m-214 -184 c0 -21 -93 -104 -121 -109 -32 -6 -59 27 -38 46
9 8 10 8 5 -1 -4 -8 -1 -13 8 -13 14 0 21 18 17 42 0 4 6 5 14 2 8 -4 15 -12
15 -20 0 -16 9 -18 30 -4 10 6 11 10 3 10 -16 0 -17 26 -1 36 6 4 8 3 5 -2 -3
-5 6 -9 21 -8 14 0 28 6 30 13 3 9 -2 11 -19 6 -19 -5 -21 -4 -9 4 21 15 40
14 40 -2z"/>
<path d="M1159 897 l-97 -40 44 -96 c25 -52 47 -97 49 -100 8 -7 55 18 55 30
0 8 -5 8 -15 -1 -21 -17 -32 -4 -18 20 10 15 9 19 -5 25 -15 6 -14 9 7 26 32
26 41 24 41 -8 0 -36 14 -58 30 -48 9 6 11 4 5 -6 -5 -7 -8 -40 -7 -72 l3 -59
-24 28 c-13 16 -28 37 -33 46 -6 10 -14 14 -22 9 -9 -5 2 -39 44 -132 31 -68
59 -126 61 -129 3 -3 3 15 0 40 -4 25 -7 148 -9 273 -1 126 -5 230 -8 231 -3
1 -48 -16 -101 -37z m76 -55 c7 -28 3 -32 -56 -65 -29 -16 -31 -21 -26 -54 4
-19 3 -33 0 -29 -3 3 -9 25 -13 48 -4 24 -11 55 -15 70 -7 26 -4 29 36 47 52
22 65 19 74 -17z"/>
<path d="M20 863 c0 -57 -6 -208 -14 -388 -3 -49 -2 -83 1 -75 3 8 43 113 90
233 47 120 83 220 81 222 -4 4 -149 65 -154 65 -2 0 -4 -26 -4 -57z m77 -9
c34 -9 35 -32 9 -114 -14 -41 -25 -67 -25 -58 -1 9 3 28 9 42 8 23 6 27 -26
42 -25 12 -32 20 -25 27 6 6 11 21 11 32 0 34 9 39 47 29z m-23 -149 c-5 -35
-3 -45 7 -45 8 0 1 -7 -15 -15 -16 -9 -31 -13 -34 -10 -3 3 1 5 9 5 11 0 11 2
1 8 -18 12 -24 82 -6 75 17 -6 18 -15 2 -32 -11 -11 -10 -13 2 -9 8 3 16 19
18 36 2 18 8 32 13 32 6 0 8 -17 3 -45z"/>
<path d="M232 842 c7 -18 393 -581 398 -581 3 0 49 68 103 152 54 84 141 216
192 295 l94 142 -395 0 c-218 0 -394 -3 -392 -8z m187 -73 c44 -55 54 -106 26
-129 -19 -16 -27 -10 -85 72 -52 74 -59 93 -37 101 36 15 57 5 96 -44z m510
42 c12 -8 8 -19 -22 -65 -21 -31 -40 -56 -43 -56 -3 0 -3 18 1 40 4 26 3 46
-5 55 -6 8 -9 19 -5 25 8 12 55 13 74 1z m-121 -21 c48 -32 36 -75 -25 -86
l-35 -7 48 -16 c41 -13 50 -21 52 -43 2 -20 -4 -31 -24 -45 -24 -15 -55 -18
-219 -21 l-190 -3 30 26 c17 14 33 25 38 25 4 0 7 32 7 70 0 39 -3 70 -7 70
-5 0 -21 11 -38 25 l-30 26 185 -3 c143 -3 190 -7 208 -18z m-53 -260 c5 -8
-84 -156 -117 -194 -9 -11 -33 18 -100 118 -26 38 -45 73 -42 78 7 12 252 10
259 -2z"/>
<path d="M602 743 c3 -26 5 -27 58 -24 97 5 94 37 -4 46 l-57 5 3 -27z"/>
<path d="M600 645 c0 -24 2 -25 66 -25 62 0 65 1 62 23 -3 20 -9 22 -65 25
-62 3 -63 2 -63 -23z"/>
<path d="M107 581 c-53 -137 -97 -252 -97 -257 0 -8 580 -86 588 -79 3 3 -367
553 -387 577 -4 4 -50 -104 -104 -241z m190 53 c26 -40 88 -131 137 -204 48
-72 86 -133 84 -136 -4 -4 -73 3 -263 26 -44 6 -102 13 -130 16 -27 3 -54 9
-59 14 -4 4 14 65 42 137 27 70 53 139 57 153 4 14 16 42 27 64 19 38 20 38
39 20 10 -11 40 -51 66 -90z"/>
<path d="M232 553 c-9 -4 -10 -9 -2 -18 8 -9 6 -14 -5 -19 -21 -8 -19 -40 5
-61 11 -10 20 -22 20 -27 0 -17 -32 -7 -57 18 -35 35 -43 21 -8 -16 37 -38 85
-41 120 -6 30 30 24 61 -16 85 -16 10 -27 20 -24 23 9 8 -19 26 -33 21z m58
-68 c15 -18 5 -35 -21 -35 -24 0 -37 29 -18 41 19 12 25 11 39 -6z"/>
<path d="M960 712 c-41 -64 -127 -197 -192 -296 -108 -164 -115 -178 -90 -173
15 3 154 20 310 38 239 28 283 36 279 49 -7 27 -222 500 -227 499 -3 0 -39
-53 -80 -117z m102 -9 c27 -51 144 -318 150 -342 5 -22 -69 -34 -357 -58 -33
-3 -64 -8 -68 -13 -10 -9 -47 -1 -47 9 0 9 43 76 111 178 27 39 49 76 49 82 0
6 3 11 8 11 4 0 32 41 62 90 30 49 58 90 61 90 3 0 17 -21 31 -47z"/>
<path d="M960 489 c-7 -12 -17 -18 -27 -15 -8 3 -18 4 -23 1 -12 -7 13 -56 26
-51 6 2 31 -9 54 -24 66 -44 78 -24 35 60 -27 54 -48 63 -65 29z m51 -36 c7
-16 15 -32 17 -37 3 -5 -10 0 -27 10 -30 18 -38 34 -24 47 12 12 20 7 34 -20z"/>
<path d="M64 283 c2 -3 130 -67 285 -143 l280 -139 -6 102 c-3 56 -8 105 -12
108 -3 3 -94 16 -201 28 -107 13 -230 29 -272 35 -43 7 -76 11 -74 9z m446
-85 c0 -5 -8 -8 -17 -8 -27 0 -47 -16 -38 -30 6 -10 10 -9 17 4 8 15 38 23 38
10 0 -3 -14 -19 -31 -35 l-30 -28 -23 23 c-13 12 -39 29 -57 36 -74 31 -65 39
41 37 55 -1 100 -5 100 -9z m49 -17 c19 -14 25 -29 25 -60 1 -46 -3 -48 -62
-27 -22 8 -42 14 -44 13 -2 -1 9 10 26 25 23 21 27 30 18 41 -11 13 -7 27 7
27 3 0 17 -9 30 -19z"/>
<path d="M1060 263 c-58 -8 -174 -22 -259 -31 l-154 -18 2 -64 c2 -36 6 -84
10 -106 l6 -42 275 139 c151 76 264 138 250 137 -14 0 -72 -7 -130 -15z m-94
-63 c-7 -8 -16 -23 -19 -32 -7 -19 -30 -15 -60 10 -16 14 -21 14 -50 -1 -27
-14 -28 -16 -9 -14 15 1 30 -6 39 -21 15 -21 14 -22 -2 -16 -13 5 -16 4 -11
-4 5 -8 1 -10 -10 -5 -13 5 -15 3 -9 -8 5 -8 -7 -2 -26 12 -32 25 -37 26 -62
13 -15 -8 -27 -17 -27 -20 0 -2 8 0 19 5 14 8 23 5 42 -15 20 -21 20 -24 5
-18 -12 5 -17 4 -13 -3 3 -5 0 -10 -8 -10 -8 0 -12 5 -8 10 3 5 -4 4 -15 -2
-40 -21 -50 -14 -54 40 -3 52 0 57 39 64 10 2 18 4 18 5 0 1 17 4 37 5 21 2
45 8 53 12 8 5 44 9 79 8 56 0 63 -2 52 -15z"/>
</g>
</svg>
